<?xml version="1.0" standalone="no"?>
<!DOCTYPE svg PUBLIC "-//W3C//DTD SVG 20010904//EN"
 "http://www.w3.org/TR/2001/REC-SVG-20010904/DTD/svg10.dtd">
<svg version="1.0" xmlns="http://www.w3.org/2000/svg"
 width="260.000000pt" height="260.000000pt" viewBox="0 0 260.000000 260.000000"
 preserveAspectRatio="xMidYMid meet">
<metadata>
Created by potrace 1.11, written by Peter Selinger 2001-2013
</metadata>
<g transform="translate(0.000000,260.000000) scale(0.100000,-0.100000)"
fill="#000000" stroke="none">
<path d="M1120 2184 c-181 -38 -325 -117 -456 -248 -176 -176 -264 -388 -264
-636 0 -248 88 -460 264 -636 176 -176 388 -264 636 -264 248 0 460 88 636
264 176 176 264 388 264 636 0 248 -88 460 -264 636 -133 133 -277 211 -458
248 -94 19 -269 20 -358 0z m14 -354 c174 -26 246 -98 246 -250 0 -116 -42
-189 -134 -230 l-38 -18 36 -17 c20 -10 49 -34 65 -54 24 -30 191 -350 191
-366 0 -3 -57 -5 -127 -5 l-128 0 -78 155 c-93 184 -107 198 -206 199 l-66 1
-3 -177 -2 -178 -120 0 -120 0 0 475 0 475 208 0 c114 0 238 -5 276 -10z m786
-463 c0 -513 -1 -530 -55 -607 -52 -76 -147 -118 -287 -127 l-88 -6 0 91 0 91
48 7 c69 10 101 30 123 77 17 39 19 72 19 495 l0 452 120 0 120 0 0 -473z"/>
<path d="M890 1541 l0 -121 85 0 c46 0 96 5 110 12 35 16 55 57 55 112 0 36
-6 52 -29 78 -29 32 -31 33 -125 36 l-96 4 0 -121z"/>
</g>
</svg>
